<svg width="43" height="14" viewBox="0 0 43 14" fill="none" xmlns="http://www.w3.org/2000/svg">
<path d="M3.796 10.091C3.198 10.091 2.66933 9.987 2.21 9.779C1.75933 9.571 1.404 9.28067 1.144 8.908C0.884 8.53533 0.745333 8.11933 0.728 7.66L1.69 7.66C1.73333 8.102 1.92833 8.492 2.275 8.83C2.62167 9.15933 3.12867 9.324 3.796 9.324C4.41133 9.324 4.89667 9.168 5.252 8.856C5.616 8.53533 5.798 8.13233 5.798 7.647C5.798 7.257 5.69833 6.945 5.499 6.711C5.29967 6.46833 5.05267 6.29067 4.758 6.178C4.46333 6.05667 4.056 5.92667 3.536 5.788C2.92933 5.62333 2.44833 5.463 2.093 5.307C1.73767 5.151 1.43433 4.90833 1.183 4.579C0.931667 4.24967 0.806 3.80333 0.806 3.24C0.806 2.772 0.927333 2.356 1.17 1.992C1.41267 1.61933 1.755 1.329 2.197 1.121C2.639 0.913 3.146 0.809 3.718 0.809C4.55867 0.809 5.23467 1.017 5.746 1.433C6.266 1.84033 6.565 2.369 6.643 3.019L5.655 3.019C5.59433 2.64633 5.39067 2.317 5.044 2.031C4.69733 1.73633 4.22933 1.589 3.64 1.589C3.094 1.589 2.639 1.73633 2.275 2.031C1.911 2.317 1.729 2.71133 1.729 3.214C1.729 3.59533 1.82867 3.903 2.028 4.137C2.22733 4.371 2.47433 4.54867 2.769 4.67C3.07233 4.79133 3.47967 4.92133 3.991 5.06C4.58033 5.22467 5.057 5.38933 5.421 5.554C5.785 5.71 6.09267 5.95267 6.344 6.282C6.59533 6.61133 6.721 7.05333 6.721 7.608C6.721 8.03267 6.60833 8.43567 6.383 8.817C6.15767 9.19833 5.824 9.506 5.382 9.74C4.94 9.974 4.41133 10.091 3.796 10.091ZM12.3145 10L9.38945 6.815L9.38945 10L8.47945 10L8.47945 0.38L9.38945 0.38L9.38945 6.074L12.2495 2.902L13.5235 2.902L10.1565 6.438L13.5495 10L12.3145 10ZM15.1805 1.563C14.9985 1.563 14.8425 1.498 14.7125 1.368C14.5825 1.238 14.5175 1.07767 14.5175 0.887C14.5175 0.696333 14.5825 0.540333 14.7125 0.418999C14.8425 0.288999 14.9985 0.224 15.1805 0.224C15.3625 0.224 15.5185 0.288999 15.6485 0.418999C15.7785 0.540333 15.8435 0.696333 15.8435 0.887C15.8435 1.07767 15.7785 1.238 15.6485 1.368C15.5185 1.498 15.3625 1.563 15.1805 1.563ZM15.6355 2.902L15.6355 10L14.7255 10L14.7255 2.902L15.6355 2.902ZM18.5933 4.462C18.8186 3.98533 19.1739 3.591 19.6593 3.279C20.1533 2.95833 20.7383 2.798 21.4143 2.798C22.0556 2.798 22.6319 2.94967 23.1433 3.253C23.6633 3.54767 24.0663 3.97233 24.3523 4.527C24.6469 5.073 24.7943 5.71 24.7943 6.438C24.7943 7.166 24.6469 7.80733 24.3523 8.362C24.0663 8.91667 23.6633 9.34567 23.1433 9.649C22.6319 9.95233 22.0556 10.104 21.4143 10.104C20.7469 10.104 20.1663 9.948 19.6723 9.636C19.1783 9.31533 18.8186 8.91667 18.5933 8.44L18.5933 13.354L17.6963 13.354L17.6963 2.902L18.5933 2.902L18.5933 4.462ZM23.8713 6.438C23.8713 5.84867 23.7543 5.34167 23.5202 4.917C23.2949 4.48367 22.9829 4.15433 22.5843 3.929C22.1856 3.70367 21.7349 3.591 21.2323 3.591C20.7469 3.591 20.3006 3.708 19.8933 3.942C19.4946 4.176 19.1783 4.50967 18.9443 4.943C18.7103 5.37633 18.5933 5.879 18.5933 6.451C18.5933 7.023 18.7103 7.52567 18.9443 7.959C19.1783 8.39233 19.4946 8.726 19.8933 8.96C20.3006 9.194 20.7469 9.311 21.2323 9.311C21.7349 9.311 22.1856 9.19833 22.5843 8.973C22.9829 8.739 23.2949 8.40533 23.5202 7.972C23.7543 7.53 23.8713 7.01867 23.8713 6.438ZM35.3011 7.842L31.1671 7.842L30.3741 10L29.4121 10L32.7271 1.03L33.7541 1.03L37.0561 10L36.0941 10L35.3011 7.842ZM35.0281 7.088L33.2341 2.174L31.4401 7.088L35.0281 7.088ZM39.4266 0.38L39.4266 10L38.5166 10L38.5166 0.38L39.4266 0.38ZM42.3973 0.38L42.3973 10L41.4873 10L41.4873 0.38L42.3973 0.38Z" fill="#0386D0"/>
</svg>
